<svg xmlns="http://www.w3.org/2000/svg" data-name="Layer 1" viewBox="0 0 512 512" x="0px" y="0px"><title>d8</title><path d="M256,0h0C114.61,0,0,114.61,0,256H0C0,397.39,114.61,512,256,512h0c141.38,0,256-114.61,256-256h0C512,114.61,397.39,0,256,0Zm43,263.17,63.31,63.38c4.92,4.93,4.94,9.33.07,14.2q-11,11-22.06,22c-4.35,4.33-9.14,4.31-13.51-.06l-63.49-63.55c-5.14-5.15-9.44-5.17-14.53-.08l-63.19,63.16c-5,5-9.42,5-14.36.06q-10.94-10.93-21.86-21.87c-4.47-4.48-4.46-9.17,0-13.67l63.36-63.33c5.35-5.35,5.34-9.51-.06-14.91l-63-63c-5-5-4.94-9.38.07-14.39q11-11,22.05-22a8.87,8.87,0,0,1,6.47-3c2.83-.08,4.95,1.28,6.88,3.22q32,32.06,64,64.1c2.64,2.64,5.63,4.1,9.26,2.83a13,13,0,0,0,4.59-3.11q31.74-31.61,63.38-63.31c5-5,9.42-5,14.37-.07q10.93,10.93,21.86,21.88c4.51,4.52,4.49,9.14,0,13.68L298.91,249C294,253.84,294,258.24,299,263.17Z"></path></svg>