<svg xmlns="http://www.w3.org/2000/svg" xmlns:xlink="http://www.w3.org/1999/xlink" version="1.1" x="0px" y="0px" viewBox="0 0 24 24" enable-background="new 0 0 24 24" xml:space="preserve"><g><path d="M21.83,11.442c-0.102-0.151-1.557-2.276-3.812-4.046l2.689-2.689l-1.414-1.414l-2.966,2.966C15.03,5.521,13.569,5,12,5   c-5.441,0-9.653,6.18-9.83,6.442L1.795,12l0.375,0.558c0.102,0.151,1.557,2.276,3.812,4.046l-2.689,2.689l1.414,1.414l2.966-2.966   C8.97,18.479,10.431,19,12,19c5.441,0,9.653-6.18,9.83-6.442L22.205,12L21.83,11.442z M8,12c0-2.206,1.794-4,4-4   c0.74,0,1.424,0.216,2.019,0.566l-1.508,1.508C12.347,10.031,12.178,10,12,10c-1.103,0-2,0.897-2,2   c0,0.178,0.031,0.347,0.075,0.512L8.567,14.02C8.215,13.424,8,12.739,8,12z M12,16c-0.74,0-1.424-0.216-2.019-0.566l1.508-1.508   C11.653,13.969,11.822,14,12,14c1.103,0,2-0.897,2-2c0-0.178-0.031-0.347-0.075-0.512l1.508-1.508C15.785,10.576,16,11.261,16,12   C16,14.206,14.206,16,12,16z"></path></g></svg>